<svg id="Layer_1" data-name="Layer 1" xmlns="http://www.w3.org/2000/svg" viewBox="0 0 340 120"><defs><style>.cls-1{fill:#fff;}</style></defs><path class="cls-1" d="M90,55.61a34.52,34.52,0,0,0-25.88,11.7L60,72l-4.12-4.67A34.39,34.39,0,0,0,26,55.85l-.18,0h0a35.44,35.44,0,0,0-.26,4.23,34.5,34.5,0,0,0,69,0,35.31,35.31,0,0,0-.26-4.23l-.66-.08c-1.14-.12-2.29-.18-3.42-.19l-.16-.5h0Z"/><path class="cls-1" d="M60,43.11a17.09,17.09,0,0,0-15.16,9.31A40.8,40.8,0,0,1,60,62.92a40.8,40.8,0,0,1,15.16-10.5A17.09,17.09,0,0,0,60,43.11Z"/><path class="cls-1" d="M27.1,49.72A40,40,0,0,1,39,50.63a23,23,0,0,1,41.92,0,40,40,0,0,1,11.94-.91,34.5,34.5,0,0,0-65.8,0Z"/><path class="cls-1" d="M128.82,43a19.14,19.14,0,0,1,6.88,1.19A15,15,0,0,1,141,47.53a15.44,15.44,0,0,1,3.46,5.36A19.35,19.35,0,0,1,145.72,60a19.75,19.75,0,0,1-1.23,7.15A15.66,15.66,0,0,1,141,72.54,15.17,15.17,0,0,1,135.7,76a18.93,18.93,0,0,1-6.88,1.2,19.16,19.16,0,0,1-6.93-1.2,15.43,15.43,0,0,1-5.37-3.42A15.16,15.16,0,0,1,113,67.13,19.75,19.75,0,0,1,111.8,60,19.35,19.35,0,0,1,113,52.89a15,15,0,0,1,3.49-5.36,15.22,15.22,0,0,1,5.37-3.39A19.38,19.38,0,0,1,128.82,43Zm0,26.85a5.64,5.64,0,0,0,5-2.42c1.08-1.61,1.62-4,1.62-7.34s-.54-5.73-1.62-7.33a5.65,5.65,0,0,0-5-2.4,5.79,5.79,0,0,0-5.15,2.4Q122,55.11,122,60c0,3.29.54,5.73,1.63,7.34A5.78,5.78,0,0,0,128.82,69.8Z"/><path class="cls-1" d="M150.35,87.18V43.46h6.14a2.75,2.75,0,0,1,1.56.42,2.24,2.24,0,0,1,.88,1.25l.73,2.43a17.06,17.06,0,0,1,2.07-1.92,13.42,13.42,0,0,1,2.36-1.49A13.28,13.28,0,0,1,170,42.82,10.19,10.19,0,0,1,174.8,44a11,11,0,0,1,3.81,3.32,17,17,0,0,1,2.51,5.33,25.69,25.69,0,0,1,.91,7.15,22.21,22.21,0,0,1-1,6.92,17.29,17.29,0,0,1-2.91,5.5,13.46,13.46,0,0,1-4.48,3.65,12.75,12.75,0,0,1-5.78,1.31,11.29,11.29,0,0,1-4.35-.74,11.89,11.89,0,0,1-3.2-2V87.18Zm16.19-36.77a8.56,8.56,0,0,0-2,.21,6.73,6.73,0,0,0-1.63.59,6.21,6.21,0,0,0-1.39,1,15.42,15.42,0,0,0-1.28,1.36V67.62a6.25,6.25,0,0,0,2.43,1.75,7.74,7.74,0,0,0,2.75.49,5.89,5.89,0,0,0,2.53-.54,5.07,5.07,0,0,0,2-1.74,9.2,9.2,0,0,0,1.33-3.12,19.58,19.58,0,0,0,.48-4.68,21.85,21.85,0,0,0-.38-4.41,9.17,9.17,0,0,0-1.08-2.9,4.12,4.12,0,0,0-1.64-1.58A4.75,4.75,0,0,0,166.54,50.41Z"/><path class="cls-1" d="M196.49,43.46h7.94a3.36,3.36,0,0,1,1.82.48,1.91,1.91,0,0,1,.93,1.25l3.33,14.88c.26,1.13.49,2.23.7,3.3s.41,2.12.58,3.17c.3-1.05.61-2.1.94-3.16s.66-2.16,1-3.31l4.16-14.91a2.13,2.13,0,0,1,.93-1.23,3,3,0,0,1,1.69-.5h4.42a3.23,3.23,0,0,1,1.81.5,2.11,2.11,0,0,1,.94,1.23l4,14.91c.3,1.13.6,2.23.91,3.3s.6,2.14.88,3.23q.26-1.6.63-3.18c.24-1.06.5-2.17.78-3.35l3.52-14.88a1.94,1.94,0,0,1,.91-1.25,3.1,3.1,0,0,1,1.71-.48h7.56L238.22,76.65h-8.06a1.6,1.6,0,0,1-1.09-.39,2.53,2.53,0,0,1-.7-1.28l-4.74-16.54c-.21-.75-.42-1.48-.61-2.21s-.36-1.45-.51-2.17c-.15.74-.32,1.48-.5,2.22s-.39,1.48-.62,2.22L216.59,75a2,2,0,0,1-2.11,1.67H206.8Z"/><path class="cls-1" d="M264.92,43a16.89,16.89,0,0,1,6,1,13,13,0,0,1,4.71,3,13.66,13.66,0,0,1,3.07,4.79,17.41,17.41,0,0,1,1.1,6.41,15,15,0,0,1-.09,1.83,3,3,0,0,1-.35,1.12,1.36,1.36,0,0,1-.69.57,3.18,3.18,0,0,1-1.11.16H258.46c.32,2.77,1.16,4.79,2.53,6a7.5,7.5,0,0,0,5.28,1.88,9.33,9.33,0,0,0,3-.42,15.6,15.6,0,0,0,2.23-.93l1.79-.93a3.78,3.78,0,0,1,1.71-.41,2.05,2.05,0,0,1,1.79.86l2.88,3.55a14.7,14.7,0,0,1-3.31,2.87,17.59,17.59,0,0,1-3.65,1.73,20.19,20.19,0,0,1-3.74.86,28.16,28.16,0,0,1-3.57.24A18.5,18.5,0,0,1,258.83,76a15,15,0,0,1-5.35-3.37,16,16,0,0,1-3.61-5.57,20.71,20.71,0,0,1-1.33-7.74A17.73,17.73,0,0,1,249.67,53a15.41,15.41,0,0,1,8.42-8.77A17.08,17.08,0,0,1,264.92,43Zm.19,6.85a5.94,5.94,0,0,0-4.44,1.62,8.41,8.41,0,0,0-2.12,4.65h12.39a8.4,8.4,0,0,0-.31-2.3,5.44,5.44,0,0,0-1-2,5.09,5.09,0,0,0-1.81-1.43A6.19,6.19,0,0,0,265.11,49.8Z"/><path class="cls-1" d="M296.53,42.89a18.7,18.7,0,0,1,4,.41A16.39,16.39,0,0,1,304,44.49h10V48.1a1.81,1.81,0,0,1-.46,1.32,3.19,3.19,0,0,1-1.59.73l-2.43.55a9.9,9.9,0,0,1,.45,3,9.52,9.52,0,0,1-1,4.48,10.16,10.16,0,0,1-2.85,3.38,13.17,13.17,0,0,1-4.27,2.14,18,18,0,0,1-5.28.75,20.85,20.85,0,0,1-2.94-.19,1.81,1.81,0,0,0-1.09,1.49,1.25,1.25,0,0,0,.88,1.21,8.16,8.16,0,0,0,2.32.52c1,.09,2.06.14,3.29.14s2.5.06,3.78.18a29.73,29.73,0,0,1,3.78.59,10.18,10.18,0,0,1,3.29,1.35,7,7,0,0,1,2.32,2.49,8,8,0,0,1,.88,4,9.58,9.58,0,0,1-1.09,4.4,11.4,11.4,0,0,1-3.2,3.82,16.54,16.54,0,0,1-5.18,2.68,22.61,22.61,0,0,1-7,1,26.65,26.65,0,0,1-6.74-.74,16.38,16.38,0,0,1-4.7-1.93,8.22,8.22,0,0,1-2.77-2.77,6.49,6.49,0,0,1-.89-3.27,5.39,5.39,0,0,1,1.34-3.73,8.92,8.92,0,0,1,3.68-2.39A5.32,5.32,0,0,1,284,68.45a5.16,5.16,0,0,1,.25-1.55,5.61,5.61,0,0,1,.8-1.58,7.28,7.28,0,0,1,1.38-1.47,8.71,8.71,0,0,1,2-1.25A10.79,10.79,0,0,1,284.32,59a10.07,10.07,0,0,1-.43-9.77,10.07,10.07,0,0,1,2.9-3.4,13.7,13.7,0,0,1,4.33-2.14A18.76,18.76,0,0,1,296.53,42.89Zm7.36,34.9a1.78,1.78,0,0,0-.5-1.31,3.68,3.68,0,0,0-1.34-.78,9.39,9.39,0,0,0-2-.43,23.4,23.4,0,0,0-2.45-.13H294.9a14.5,14.5,0,0,1-2.79-.27,6.74,6.74,0,0,0-1.52,1.43,2.91,2.91,0,0,0-.59,1.78,2.61,2.61,0,0,0,.31,1.28,2.49,2.49,0,0,0,1.07,1,7.36,7.36,0,0,0,2.06.65,18.47,18.47,0,0,0,3.28.25,18.85,18.85,0,0,0,3.52-.27,7.3,7.3,0,0,0,2.19-.71,2.7,2.7,0,0,0,1.14-1.1A3.12,3.12,0,0,0,303.89,77.79Zm-7.36-19.48a4.08,4.08,0,0,0,4.67-4.41,4.41,4.41,0,0,0-1.1-3.17,6.12,6.12,0,0,0-7.14,0,4.41,4.41,0,0,0-1.1,3.17,5.5,5.5,0,0,0,.27,1.76,3.63,3.63,0,0,0,.85,1.39,4.12,4.12,0,0,0,1.45.93A6,6,0,0,0,296.53,58.31Z"/></svg>